 <svg  version="1.0" xmlns="http://www.w3.org/2000/svg"  width="762.000000pt" height="309.000000pt" viewBox="0 0 762.000000 309.000000"  preserveAspectRatio="xMidYMid meet">  <g transform="translate(0.000000,309.000000) scale(0.100000,-0.100000)" fill="#fb2025" stroke="none"> <path d="M6622 2815 c-61 -19 -132 -77 -163 -133 -14 -26 -34 -49 -45 -51 -18 -3 -42 -13 -159 -66 -27 -12 -93 -39 -145 -60 -52 -20 -108 -43 -125 -50 -57 -26 -100 -43 -190 -78 -49 -19 -128 -52 -175 -73 -82 -36 -90 -38 -205 -39 -111 -2 -124 -4 -168 -29 -26 -16 -52 -38 -59 -49 -6 -12 -21 -34 -33 -49 -29 -34 -40 -124 -26 -191 9 -38 22 -58 69 -102 68 -65 128 -90 197 -80 48 8 65 1 118 -49 15 -14 33 -26 39 -26 5 0 23 -10 38 -22 15 -13 61 -43 101 -68 40 -25 129 -82 198 -127 70 -45 167 -107 216 -139 189 -121 320 -208 327 -218 4 -6 8 -16 8 -22 0 -10 -86 -69 -285 -193 -55 -34 -158 -99 -230 -144 -131 -83 -168 -100 -240 -112 -77 -13 -175 -105 -175 -166 0 -15 -5 -31 -11 -35 -6 -3 -8 -17 -5 -30 10 -40 -16 -44 -266 -44 -169 0 -237 -3 -246 -12 -13 -13 -18 -242 -6 -272 6 -14 88 -16 834 -16 746 0 828 2 834 16 12 30 7 259 -6 272 -9 9 -92 12 -311 12 -285 0 -337 5 -337 30 0 11 62 70 73 70 4 0 34 17 65 39 31 21 91 60 132 86 41 27 87 57 102 67 15 10 30 18 34 18 3 0 16 8 29 17 31 24 47 35 150 99 97 61 176 94 226 94 31 0 82 26 127 65 39 33 73 101 79 157 11 110 -36 194 -139 245 -88 45 -125 50 -184 23 -40 -17 -50 -19 -59 -7 -5 7 -43 33 -83 58 -40 24 -84 51 -96 59 -55 36 -85 56 -151 100 -38 26 -74 49 -80 51 -13 5 -150 95 -333 218 -186 125 -193 129 -222 141 -24 11 -24 11 19 36 24 13 50 24 58 24 8 0 27 6 41 13 54 28 188 87 196 87 3 0 34 13 68 29 35 15 99 43 143 61 44 18 107 43 140 57 33 13 72 31 87 39 14 8 35 14 46 14 10 0 29 9 41 19 22 19 49 18 62 -2 11 -15 101 -28 156 -21 44 5 56 3 83 -17 57 -42 110 -96 110 -111 0 -8 -13 -27 -29 -42 -16 -16 -35 -41 -41 -57 -14 -32 -20 -25 169 -182 58 -48 109 -94 114 -102 13 -24 56 -19 66 8 5 12 6 29 2 38 -5 14 -131 128 -204 186 -34 26 -34 31 2 73 16 19 69 83 116 143 48 59 92 107 98 107 7 0 64 -45 127 -100 63 -55 123 -100 132 -100 20 0 48 26 48 44 0 8 -26 36 -57 64 -202 177 -243 211 -264 217 -23 8 -26 5 -72 -60 -10 -14 -27 -25 -37 -25 -11 0 -53 29 -94 65 -62 54 -76 72 -81 103 -14 89 -82 173 -165 202 -63 23 -61 23 -118 5z"/> <path d="M385 2798 c-3 -7 -4 -614 -3 -1348 l3 -1335 174 -3 c116 -2 178 1 187 9 11 9 13 124 14 621 0 336 3 614 6 619 6 11 265 12 279 1 6 -4 35 -97 64 -207 29 -110 59 -216 66 -235 12 -35 24 -77 49 -180 8 -30 21 -80 30 -110 23 -79 70 -247 107 -385 18 -66 38 -123 44 -127 5 -5 84 -7 175 -5 l165 2 -3 35 c-2 32 -13 74 -57 225 -20 70 -40 139 -60 215 -9 36 -21 74 -26 85 -5 11 -13 38 -19 60 -10 41 -36 138 -64 235 -39 135 -78 278 -85 310 -4 19 -12 44 -18 55 -6 11 -14 39 -18 63 -8 50 1 64 59 94 70 36 148 125 183 208 58 142 63 170 63 381 0 107 -5 212 -11 234 -6 22 -14 57 -18 77 -5 21 -13 43 -18 50 -6 7 -14 28 -18 45 -3 18 -15 39 -25 46 -11 7 -23 22 -27 34 -13 32 -128 128 -187 156 -56 27 -100 40 -206 64 -93 21 -798 31 -805 11z m695 -273 c23 -8 54 -15 69 -15 33 0 119 -74 143 -121 43 -89 51 -139 51 -311 0 -173 0 -175 -51 -277 -9 -18 -38 -52 -63 -75 -66 -59 -186 -88 -349 -84 l-115 3 -3 435 c-1 239 0 441 3 448 7 19 260 17 315 -3z"/> <path d="M2113 2804 c-20 -9 -18 -2667 1 -2683 9 -8 68 -11 187 -9 l174 3 3 628 2 627 145 0 c108 0 146 -3 149 -12 10 -37 29 -117 36 -148 5 -19 13 -48 18 -65 6 -16 18 -56 26 -88 34 -122 69 -246 86 -302 5 -16 12 -48 16 -70 4 -22 12 -56 19 -75 7 -19 20 -62 30 -95 9 -33 20 -67 23 -75 3 -8 11 -37 17 -65 21 -90 38 -150 46 -170 5 -11 12 -36 17 -55 l8 -35 172 -3 c196 -3 194 -4 169 75 -9 27 -23 73 -31 103 -9 30 -27 96 -42 145 -14 50 -29 106 -34 125 -4 19 -13 49 -19 65 -6 17 -25 80 -41 140 -16 61 -36 133 -44 160 -35 121 -58 202 -66 235 -18 66 -43 155 -56 199 -26 83 -21 95 49 134 34 20 73 48 87 64 55 63 90 113 90 125 0 8 4 18 9 23 18 20 43 124 57 240 11 97 12 146 3 255 -6 74 -17 149 -24 165 -7 17 -19 49 -26 73 -39 131 -175 262 -325 312 -145 49 -172 51 -554 55 -201 3 -371 2 -377 -1z m671 -275 c74 -14 153 -49 182 -81 35 -38 70 -101 78 -138 20 -100 26 -239 15 -330 -32 -253 -148 -340 -452 -340 l-127 0 0 450 0 450 122 0 c67 0 149 -5 182 -11z"/> <path d="M4150 2043 c-237 -55 -355 -216 -389 -528 -17 -157 -14 -774 5 -925 8 -69 19 -134 23 -145 5 -11 18 -44 30 -72 61 -149 164 -235 333 -277 83 -20 216 -21 291 -1 32 8 66 15 75 15 33 0 123 54 172 103 58 58 90 112 118 199 47 146 47 148 47 683 0 470 -1 513 -17 538 -10 14 -18 38 -18 51 0 56 -65 179 -123 235 -58 54 -149 111 -180 111 -12 0 -44 7 -71 15 -62 19 -209 18 -296 -2z m274 -284 c21 -18 44 -53 57 -87 22 -55 23 -70 27 -527 4 -462 -4 -649 -30 -698 -5 -10 -26 -36 -45 -58 l-35 -39 -89 0 c-84 0 -90 2 -117 28 -84 82 -87 107 -87 712 0 500 0 506 23 571 35 103 72 128 184 129 72 0 80 -2 112 -31z"/> </g> </svg> 